<svg id="Camada_1" data-name="Camada 1" xmlns="http://www.w3.org/2000/svg" viewBox="0 0 16 16"><defs><style>.cls-1{fill:#25d651;}</style></defs><title>engrenagens</title><path class="cls-1" d="M12,7V5l-1.2-.4a4.18,4.18,0,0,0-.4-1L11,2.4,9.5,1.1l-1.1.5a3,3,0,0,0-1-.4L7,0H5L4.6,1.2a4.18,4.18,0,0,0-1,.4L2.5,1.1,1.1,2.5l.6,1.2a3,3,0,0,0-.4,1L0,5V7l1.2.4a4.18,4.18,0,0,0,.4,1L1.1,9.5l1.4,1.4,1.2-.6a3,3,0,0,0,1,.4L5,12H7l.4-1.2a4.18,4.18,0,0,0,1-.4l1.2.6L11,9.6l-.6-1.2a3,3,0,0,0,.4-1ZM3,6A3,3,0,0,1,6,3,3,3,0,0,1,9,6,3,3,0,0,1,6,9,3,3,0,0,1,3,6Z" transform="translate(0 0)"/><path class="cls-1" d="M16,3V2h-.6a.76.76,0,0,0-.2-.5l.4-.4L14.9.4l-.4.4c-.2-.1-.3-.2-.5-.2V0H13V.6a.76.76,0,0,0-.5.2L12.1.4l-.7.7.4.4c-.1.2-.2.3-.2.5H11V3h.6a.76.76,0,0,0,.2.5l-.4.4.7.7.4-.4c.2.1.3.2.5.2V5h1V4.4a.76.76,0,0,0,.5-.2l.4.4.7-.7-.4-.4c.1-.2.2-.3.2-.5Zm-2.5.5a.94.94,0,0,1-1-1,1,1,0,0,1,2,0A.94.94,0,0,1,13.5,3.5Z" transform="translate(0 0)"/><path class="cls-1" d="M15.46,12.23a3.3,3.3,0,0,0-.36-.8l.27-.54-.63-.63-.44.36a3.2,3.2,0,0,0-.81-.36l-.18-.54h-.9l-.18.54a3.3,3.3,0,0,0-.8.36l-.54-.27-.63.63.27.54a3.14,3.14,0,0,0-.36.8l-.45.09v.9l.54.18a3.2,3.2,0,0,0,.36.81l-.27.53.63.63.54-.27a3.14,3.14,0,0,0,.8.36l.09.45h.9l.18-.54a3.2,3.2,0,0,0,.81-.36l.53.27.63-.63-.36-.44a3.2,3.2,0,0,0,.36-.81l.54-.18v-.9Zm-2.6,2a1.35,1.35,0,1,1,1.35-1.35A1.38,1.38,0,0,1,12.86,14.21Z" transform="translate(0 0)"/></svg>