<svg xmlns="http://www.w3.org/2000/svg" viewBox="0 0 488.89 337.39"><title>logo</title><g id="Graphic_Elements" data-name="Graphic Elements"><path d="M682.62,400.39A47.07,47.07,0,1,0,610,341.27c-2.23,2.24-189.63,233.21-191.38,235.87a47.06,47.06,0,1,0,72.63,59.11C493.47,634,680.87,403,682.62,400.39Z" transform="translate(-404.85 -320.06)"/><path d="M791.05,510a47.07,47.07,0,1,0-72.61-59.14C716.19,453.1,617.76,574.42,616,577.1a47.07,47.07,0,1,0,72.61,59.14C690.86,634,789.29,512.66,791.05,510Z" transform="translate(-404.85 -320.06)"/><circle cx="846.66" cy="367.14" r="47.08" transform="translate(-108.86 787.6) rotate(-76.81)"/><circle cx="451.92" cy="367.14" r="47.08" transform="translate(-508.46 -127.31) rotate(-21.66)"/></g></svg>