<svg id="Camada_2" data-name="Camada 2" xmlns="http://www.w3.org/2000/svg" viewBox="0 0 807.07 809.11"><defs><style>.cls-1,.cls-2{fill:#fff;}.cls-1{fill-rule:evenodd;}</style></defs><title>lupa</title><g id="Icons1"><path class="cls-1" d="M674,744.9c-57.16,42.3,120.57-139.44,70-70.36,1.27-.1-1.08,3.73-8.94,13.34,0,0,135.07,134.15,201.37,202.43,23,24.89-18.51,74.57-46.73,48.63-60-58.25-202.11-203-202.33-203.26L674,744.9Z" transform="translate(-136.03 -137.13)"/><path class="cls-2" d="M475.52,812.73c86.91-.84,172.94-36.83,234.8-98,73.47-72.62,111.31-180,98.11-282.61-22.61-175.75-167.1-295-335.07-295C345.74,137.13,221.7,217,167.3,332.72c-41.65,88.63-41.73,195.64,0,284.42,54,115,176,194.36,303.88,195.59Zm-4-56.31c-129.79-1.25-250.88-101.62-275-230.31-17-90.72,15.07-188.9,81.82-253.33C356.33,197.54,478.83,172.34,580.69,215,671.81,253.14,740,341.74,752.59,439.34c10.77,83.67-19.25,171.35-78.25,231.74-51.75,53-124.33,84.62-199.17,85.34Z" transform="translate(-136.03 -137.13)"/></g></svg>